# AST/ASF file generated using VICON BodyLanguage
# -----------------------------------------------
:version 1.10
:name VICON
:units
  mass 1.0
  length 0.45
  angle deg
:documentation
   .ast/.asf automatically generated from VICON data using
   VICON BodyBuilder and BodyLanguage model FoxedUp or BRILLIANT.MOD
:root
   order TX TY TZ RX RY RZ
   axis XYZ
   position 0 0 0  
   orientation 0 0 0 
:bonedata
  begin
     id 1 
     name lhipjoint
     direction 0.677091 -0.635792 0.370561 
     length 2.74323 
     axis 0 0 0  XYZ
  end
  begin
     id 2 
     name lfemur
     direction 0.34202 -0.939693 0  
     length 7.44995  
     axis 0 0 20  XYZ
    dof rx ry rz
    limits (-160.0 20.0)
           (-70.0 70.0)
           (-60.0 70.0)
  end
  begin
     id 3 
     name ltibia
     direction 0.34202 -0.939693 0   
     length 7.34467   
     axis 0 0 20   XYZ
    dof rx
    limits (-10.0 170.0)
  end
  begin
     id 4 
     name lfoot
     direction 0.101953 -0.280114 0.954537   
     length 1.72105   
     axis -90 7.62852e-016 20   XYZ
    dof rx rz
    limits (-45.0 90.0)
           (-70.0 20.0)
  end
  begin
     id 5 
     name ltoes
     direction 1.53537e-011 -4.21915e-011 1   
     length 0.865872   
     axis -90 7.62852e-016 20   XYZ
    dof rx
    limits (-90.0 20.0)
  end
  begin
     id 6 
     name rhipjoint
     direction -0.695735 -0.620586 0.361699   
     length 2.81045  
     axis 0 0 0  XYZ 
  end
  begin
     id 7 
     name rfemur
     direction -0.34202 -0.939693 0   
     length 7.29387   
     axis 0 0 -20   XYZ
    dof rx ry rz
    limits (-160.0 20.0)
           (-70.0 70.0)
           (-70.0 60.0)
  end
  begin
     id 8 
     name rtibia
     direction -0.34202 -0.939693 0   
     length 7.44935   
     axis 0 0 -20   XYZ
    dof rx
    limits (-10.0 170.0)
 end
 begin
     id 9 
     name rfoot
     direction -0.104163 -0.286184 0.952496   
     length 1.77731  
     axis -90 -7.62852e-016 -20   XYZ
    dof rx rz
    limits (-45.0 90.0)
           (-20.0 70.0)
  end
  begin
     id 10 
     name rtoes
     direction -1.5355e-011 -4.21888e-011 1   
     length 0.892424   
     axis -90 -7.62852e-016 -20   XYZ
    dof rx
    limits (-90.0 20.0)
  end
  begin
     id 11 
     name lowerback
     direction 0.0100202 0.997226 -0.0737589   
     length 2.16892   
     axis 0 0 0   XYZ
    dof rx ry rz
    limits (-20.0 45.0)
           (-30.0 30.0)
           (-30.0 30.0)
  end
  begin
     id 12 
     name upperback
     direction 0.00432398 0.999988 -0.00215019   
     length 2.17326   
     axis 0 0 0   XYZ
    dof rx ry rz
    limits (-20.0 45.0)
           (-30.0 30.0)
           (-30.0 30.0)
  end
  begin
     id 13 
     name thorax
     direction -0.00195047 0.999485 0.0320434   
     length 2.18139   
     axis 0 0 0   XYZ
    dof rx ry rz
    limits (-20.0 45.0)
           (-30.0 30.0)
           (-30.0 30.0)
  end
  begin
     id 14 
     name lowerneck
     direction 0.00782762 0.986241 0.165128   
     length 1.88415   
     axis 0 0 0   XYZ
    dof rx ry rz
    limits (-20.0 45.0)
           (-30.0 30.0)
           (-30.0 30.0)
  end
  begin
     id 15 
     name upperneck
     direction 0.00988667 0.981098 -0.193258   
     length 1.9242   
     axis 0 0 0   XYZ
    dof rx ry rz
    limits (-20.0 45.0)
           (-30.0 30.0)
           (-30.0 30.0)
  end
  begin
     id 16
     name head
     direction 0.00252199 0.996513 -0.0833958  
     length 1.93887  
     axis 0 0 0   XYZ
    dof rx ry rz
    limits (-20.0 45.0)
           (-30.0 30.0)
           (-30.0 30.0)
  end
  begin
     id 17 
     name lclavicle
     direction 0.929492 0.368193 -0.0218667  
     length 3.5955  
     axis 0 0 0   XYZ
    dof ry rz
    limits (-20.0 10.0)
           (0.0 20.0)
  end
  begin
     id 18 
     name lhumerus
     direction 1 -4.48972e-011 1.41911e-027   
     length 5.2795   
     axis 180 -30 -90   XYZ
    dof rx ry rz
    limits (-60.0 90.0)
           (-90.0 90.0)
           (-90.0 90.0)
  end
  begin
     id 19
     name lradius
     direction 1 -4.48963e-011 7.05772e-027   
     length 3.53504   
     axis 180 -30 -90   XYZ
    dof rx
    limits (-10.0 170.0)
  end
  begin
     id 20
     name lwrist
     direction 1 -4.48957e-011 9.54866e-027   
     length 1.76752   
     axis -7.69462e-015 90 90   XYZ
    dof ry
    limits (-180.0 0.0)
 end
  begin
     id 21 
     name lhand
     direction 1 -4.48979e-011 1.90973e-026   
     length 0.667948   
     axis -1.21857e-014 90 90   XYZ
    dof rx rz
    limits (-90.0 90.0)
           (-45.0 45.0)
  end
  begin
     id 22 
     name lfingers
     direction 1 -4.48987e-011 3.81946e-026   
     length 0.538517   
     axis -2.43714e-014 90 90   XYZ
    dof rx
    limits (0.0 90.0)
  end
  begin
     id 23
     name lthumb
     direction 0.707107 -6.34962e-011 0.707107   
     length 0.773206   
     axis -90 45 2.85299e-015   XYZ
    dof rx rz
    limits (-45.0 45.0)
           (-45.0 45.0)
  end
  begin
     id 24 
     name rclavicle
     direction -0.898763 0.414256 -0.143584   
     length 3.5176  
     axis 0 0 0   XYZ 
    dof ry rz
    limits (-10.0 20.0)
           (-20.0 0.0)
  end
  begin
     id 25 
     name rhumerus
     direction -1 -4.48971e-011 1.129e-027  
     length 5.25035   
     axis 180 30 90   XYZ
    dof rx ry rz
    limits (-90.0 60.0)
           (-90.0 90.0)
           (-90.0 90.0)
  end
  begin
     id 26 
     name rradius
     direction -1 -4.48955e-011 6.34664e-027   
     length 3.58884   
     axis 180 30 90   XYZ
    dof rx
    limits (-10.0 170.0)
  end
  begin
     id 27 
     name rwrist
     direction -1 -4.48966e-011 9.54866e-027   
     length 1.79442   
     axis -7.69462e-015 -90 -90   XYZ
    dof ry
    limits (-180.0 0.0)
  end
  begin
     id 28
     name rhand
     direction -1 -4.48973e-011 1.90973e-026   
     length 0.779235   
     axis -1.21857e-014 -90 -90   XYZ
    dof rx rz
    limits (-90.0 90.0)
           (-45.0 45.0)
  end
  begin
     id 29
     name rfingers
     direction -1 -4.48984e-011 3.81946e-026   
     length 0.62824   
     axis -2.43714e-014 -90 -90   XYZ
    dof rx
    limits (0.0 90.0)
  end
  begin
     id 30
     name rthumb
     direction -0.707107 -6.34968e-011 0.707107   
     length 0.90203   
     axis -90 -45 -2.85299e-015   XYZ
    dof rx rz
    limits (-45.0 45.0)
           (-45.0 45.0)
  end
:hierarchy
  begin
    root lhipjoint rhipjoint lowerback
    lhipjoint lfemur
    lfemur ltibia
    ltibia lfoot
    lfoot ltoes
    rhipjoint rfemur
    rfemur rtibia
    rtibia rfoot
    rfoot rtoes
    lowerback upperback
    upperback thorax
    thorax lowerneck lclavicle rclavicle
    lowerneck upperneck
    upperneck head
    lclavicle lhumerus
    lhumerus lradius
    lradius lwrist
    lwrist lhand lthumb
    lhand lfingers
    rclavicle rhumerus
    rhumerus rradius
    rradius rwrist
    rwrist rhand rthumb
    rhand rfingers
  end

#!OML:ASF I:\Random Stuff\random\construction\7_22_03\Session 2\subj1.ASF
:FULLY-SPECIFIED
:DEGREES
83
root -24.6317 17.5187 -3.48166 329.985 88.925 323.208
lowerback 0.580023 0.985577 -1.73141
upperback -1.463 1.31164 0.914853
thorax -1.88519 0.691627 1.87881
lowerneck -23.6096 0.482752 -0.882459
upperneck 32.3035 -1.03394 7.53049
head 15.378 0.824615 3.21016
rclavicle -1.11071e-014 -4.77083e-015
rhumerus -36.5293 -0.711849 -79.6135
rradius 31.9654
rwrist 2.29652
rhand -38.4805 12.8344
rfingers 7.12502
rthumb -11.5027 -16.83
lclavicle -1.11071e-014 -4.77083e-015
lhumerus -37.3895 -6.36402 89.8459
lradius 34.578
lwrist 22.5518
lhand -20.0264 54.0194
lfingers 7.12502
lthumb 6.31436 83.9053
rfemur -7.1424 25.7811 20.0016
rtibia 17.2173
rfoot -17.7085 -42.9389
rtoes 7.20601
lfemur -12.9683 -20.2354 -15.1847
ltibia 23.1614
lfoot -14.1241 20.8257
ltoes 5.1235
84
root -24.6161 17.5147 -3.46423 333.758 88.832 327.051
lowerback 0.599845 0.978589 -1.73155
upperback -1.45855 1.30232 0.933539
thorax -1.89179 0.68714 1.89799
lowerneck -23.7193 0.47286 -0.92463
upperneck 32.4911 -1.09122 7.69024
head 15.4982 0.826184 3.28917
rclavicle -1.2834e-014 -3.08116e-015
rhumerus -36.5571 -0.53366 -79.7258
rradius 32.0589
rwrist 2.22958
rhand -38.4597 12.8363
rfingers 7.12502
rthumb -11.4826 -16.8292
lclavicle -1.2834e-014 -3.08116e-015
lhumerus -37.3622 -6.36221 89.769
lradius 34.2919
lwrist 22.6248
lhand -20.2011 54.2545
lfingers 7.12502
lthumb 6.14571 84.1454
rfemur -7.05853 25.724 20.1018
rtibia 17.3069
rfoot -17.7677 -42.8035
rtoes 7.24624
lfemur -12.7572 -20.1426 -15.1977
ltibia 23.0972
lfoot -14.2351 20.8733
ltoes 4.63818
85
root -24.6005 17.5147 -3.44994 337.971 88.7485 331.233
lowerback 0.509319 1.00083 -1.68367
upperback -1.47793 1.33423 0.924778
thorax -1.86093 0.702358 1.86283
lowerneck -23.8461 0.4329 -0.944087
upperneck 32.6698 -1.207 7.86012
head 15.6236 0.808247 3.35785
rclavicle 9.81499e-016 5.26779e-015
rhumerus -36.5966 -0.506455 -79.7673
rradius 32.1127
rwrist 2.19219
rhand -38.4208 12.8341
rfingers 7.12502
rthumb -11.4451 -16.8335
lclavicle 9.81499e-016 5.26779e-015
lhumerus -37.2205 -6.72355 89.8222
lradius 33.9277
lwrist 23.0023
lhand -20.4766 54.4546
lfingers 7.12502
lthumb 5.87972 84.353
rfemur -7.11861 25.648 20.1065
rtibia 17.4223
rfoot -17.7572 -42.6802
rtoes 7.22591
lfemur -12.6501 -20.1301 -15.2037
ltibia 23.0025
lfoot -14.337 20.9723
ltoes 4.7552
86
root -24.5843 17.5141 -3.43377 341.136 88.693 334.386
lowerback 0.441484 0.997994 -1.57212
upperback -1.49109 1.33269 0.895677
thorax -1.83284 0.699664 1.77154
lowerneck -23.9426 0.372464 -1.04494
upperneck 32.8343 -1.33194 8.06767
head 15.7376 0.781093 3.45447
rclavicle -6.85807e-015 -1.05356e-014
rhumerus -36.5886 -0.616138 -79.7947
rradius 32.1755
rwrist 2.11828
rhand -38.3636 12.9367
rfingers 7.12502
rthumb -11.3899 -16.734
lclavicle -6.85807e-015 -1.05356e-014
lhumerus -37.2416 -6.95322 89.8333
lradius 33.6947
lwrist 23.1417
lhand -20.5252 54.464
lfingers 7.12502
lthumb 5.83274 84.3638
rfemur -7.15712 25.5401 20.1303
rtibia 17.564
rfoot -17.9035 -42.5032
rtoes 7.18711
lfemur -12.5206 -20.0184 -15.2082
ltibia 22.8904
lfoot -14.3464 20.921
ltoes 4.89247
87
root -24.5679 17.512 -3.41302 345.026 88.6251 338.313
lowerback 0.435631 0.985779 -1.5201
upperback -1.50592 1.31694 0.875459
thorax -1.84236 0.691109 1.72192
lowerneck -24.0087 0.323898 -1.14688
upperneck 32.9986 -1.43406 8.26441
head 15.8438 0.761458 3.55111
rclavicle 9.31803e-016 2.78299e-015
rhumerus -36.5779 -0.647501 -79.8461
rradius 32.2554
rwrist 1.99975
rhand -38.308 13.0431
rfingers 7.12502
rthumb -11.3363 -16.6305
lclavicle 9.31803e-016 2.78299e-015
lhumerus -37.3995 -6.95632 89.7596
lradius 33.5425
lwrist 23.0657
lhand -20.3854 54.3055
lfingers 7.12502
lthumb 5.96777 84.2015
rfemur -7.12357 25.4516 20.1705
rtibia 17.678
rfoot -18.0968 -42.2866
rtoes 7.24917
lfemur -12.3286 -19.6873 -15.2448
ltibia 22.7603
lfoot -14.2714 20.701
ltoes 4.26127
